<svg width="81" height="18" viewBox="0 0 81 18" fill="none" xmlns="http://www.w3.org/2000/svg">
<g clip-path="url(#clip0_410_5894)">
<path d="M28.8679 12.9415C28.1495 12.9415 27.5396 12.7752 27.0383 12.4425C26.5455 12.1208 26.1748 11.6382 25.9872 11.0739L27.0434 10.4441C27.3418 11.2989 27.9608 11.7261 28.9005 11.7255C29.3629 11.7255 29.7096 11.6333 29.9405 11.449C30.0503 11.3653 30.1388 11.256 30.1984 11.1303C30.2581 11.0046 30.2873 10.8662 30.2835 10.7267C30.2894 10.585 30.2579 10.4443 30.1921 10.3192C30.1264 10.1942 30.0288 10.0894 29.9097 10.0158C29.661 9.85294 29.22 9.67382 28.5867 9.47843C28.2947 9.39208 28.0071 9.29076 27.7251 9.17487C27.4795 9.06686 27.2451 8.9342 27.0254 8.77884C26.7902 8.62037 26.6006 8.40123 26.4759 8.1438C26.3508 7.86543 26.2895 7.56179 26.2967 7.2558C26.2967 6.58238 26.5313 6.04853 27.0006 5.65425C27.4785 5.25706 28.0804 5.04723 28.6973 5.06282C29.252 5.0505 29.7979 5.20528 30.2663 5.5077C30.7182 5.80816 31.077 6.23283 31.3012 6.73241L30.2663 7.34303C29.9531 6.63297 29.4301 6.27823 28.6973 6.27881C28.3412 6.27881 28.0554 6.36372 27.84 6.53353C27.7362 6.61412 27.653 6.71882 27.5972 6.83887C27.5414 6.95892 27.5147 7.09082 27.5193 7.22352C27.515 7.3535 27.5426 7.48253 27.5994 7.59901C27.6563 7.71548 27.7407 7.81577 27.8451 7.89084C28.0617 8.05425 28.4547 8.22609 29.024 8.40637C29.3098 8.50057 29.5178 8.57123 29.6482 8.61834C29.7802 8.66544 29.9645 8.73958 30.2029 8.84077C30.3957 8.91614 30.5773 9.01861 30.7422 9.14521C30.8801 9.26268 31.0102 9.38945 31.1314 9.52466C31.2682 9.67345 31.3689 9.85267 31.4255 10.048C31.485 10.2634 31.5139 10.4864 31.5112 10.7101C31.5112 11.3987 31.2678 11.9433 30.7808 12.3439C30.2938 12.7446 29.6562 12.9438 28.8679 12.9415Z" fill="#0B0B49"/>
<path d="M40.1485 5.20068H41.3754V12.8002H40.1485V9.51074H36.947V12.8002H35.7193V5.20068H36.947V8.31655H40.1485V5.20068Z" fill="#0B0B49"/>
<path d="M50.9377 12.8002L50.4147 11.2693H47.2347L46.7117 12.8002H45.3776L48.0887 5.20068H49.5608L52.2607 12.8002H50.9377ZM47.6402 10.0961H50.0092L48.8243 6.66528L47.6402 10.0961Z" fill="#0B0B49"/>
<path d="M60.6381 6.39487H57.4898V8.52242H60.5318V9.71661H57.4898V12.8002H56.2629V5.20068H60.6355L60.6381 6.39487Z" fill="#0B0B49"/>
<path d="M66.2214 11.606H69.5291V12.8002H64.9944V5.20068H69.476V6.39487H66.2179V8.37064H69.2059V9.55435H66.2214V11.606Z" fill="#C69D67"/>
<path d="M81 5.20068V12.8002H79.7731V7.38232L77.4993 11.2048H77.3501L75.0772 7.37185V12.8002H73.852V5.20068H75.175L77.4247 9.00044L79.6874 5.20068H81Z" fill="#C69D67"/>
<path d="M22.1024 5.06373L18.0521 0.942961C17.4591 0.339427 16.6548 0.000239161 15.8161 0H6.76901C6.35355 3.86472e-06 5.94216 0.0832816 5.55835 0.245077C5.17454 0.406873 4.82582 0.644017 4.5321 0.942961L0.416684 5.13002C0.28281 5.26627 0.177186 5.42848 0.106068 5.60703C0.03495 5.78558 -0.000212517 5.97684 0.0026659 6.16947C0.00554433 6.3621 0.0464042 6.55219 0.122824 6.72846C0.199244 6.90472 0.309668 7.06359 0.447551 7.19564L7.256 13.7205C7.86419 14.303 8.67145 14.6215 9.50663 14.6087C10.3418 14.5958 11.1392 14.2525 11.7298 13.6516L15.48 9.8361C14.7319 9.83628 14.0146 10.1388 13.4857 10.677L11.1871 13.0157C10.7413 13.4694 10.1397 13.7291 9.50923 13.74C8.87876 13.7509 8.26881 13.5122 7.80815 13.0741L1.96597 7.52101C1.91673 7.47356 1.88219 7.41253 1.86658 7.34538C1.85097 7.27824 1.85498 7.20792 1.87811 7.14307C1.90124 7.07821 1.94249 7.02164 1.99678 6.98031C2.05108 6.93897 2.11606 6.91467 2.18374 6.91039L15.5417 6.18028H1.3478C1.28257 6.18044 1.21875 6.16088 1.16446 6.12409C1.11017 6.08729 1.06785 6.03492 1.04286 5.97361C1.01788 5.9123 1.01136 5.84482 1.02413 5.77974C1.0369 5.71465 1.06838 5.65489 1.11459 5.60804L4.8742 1.78212C5.16791 1.48317 5.51663 1.24603 5.90044 1.08423C6.28426 0.922438 6.69564 0.83916 7.1111 0.839156H15.474C16.3127 0.839395 17.117 1.17858 17.71 1.78212L21.4773 5.61502C21.5509 5.68929 21.6092 5.77763 21.649 5.87494C21.6888 5.97225 21.7093 6.07661 21.7093 6.18202C21.7093 6.28743 21.6888 6.39179 21.649 6.4891C21.6092 6.58641 21.5509 6.67475 21.4773 6.74902L12.4097 15.9719C11.8813 16.5103 11.5844 17.24 11.584 18.0009L22.1024 7.29944C22.2467 7.15266 22.3612 6.97839 22.4393 6.78658C22.5174 6.59478 22.5576 6.3892 22.5576 6.18158C22.5576 5.97397 22.5174 5.76839 22.4393 5.57658C22.3612 5.38478 22.2467 5.21051 22.1024 5.06373Z" fill="#C69D67"/>
</g>
<defs>
<clipPath id="clip0_410_5894">
<rect width="81" height="18" fill="white"/>
</clipPath>
</defs>
</svg>
