<?xml version="1.0" encoding="UTF-8"?>

<svg version="1.1" xmlns="http://www.w3.org/2000/svg" xmlns:xlink="http://www.w3.org/1999/xlink">

    <symbol viewBox="0 0 15 9" id="dropdown-arrow" xmlns="http://www.w3.org/2000/svg">
        <path d="M2.28339 0.389361L7.45672 5.56269L12.6301 0.389361C12.7535 0.265919 12.9 0.167999 13.0613 0.101192C13.2226 0.0343858 13.3955 9.1059e-09 13.5701 6.8992e-09C13.7446 4.69251e-09 13.9175 0.0343858 14.0788 0.101192C14.2401 0.167999 14.3866 0.265918 14.5101 0.389361C14.6335 0.512804 14.7314 0.659351 14.7982 0.820637C14.865 0.981922 14.8994 1.15479 14.8994 1.32936C14.8994 1.50393 14.865 1.6768 14.7982 1.83809C14.7314 1.99937 14.6335 2.14592 14.5101 2.26936L8.39005 8.38936C7.87005 8.90936 7.03005 8.90936 6.51005 8.38936L0.390053 2.26936C0.266448 2.14601 0.168385 1.99949 0.101477 1.83819C0.034568 1.6769 0.000127931 1.50399 0.00012793 1.32936C0.00012793 1.15474 0.034568 0.981826 0.101477 0.820529C0.168385 0.659231 0.266448 0.512713 0.390053 0.389361C0.910053 -0.117306 1.76339 -0.130639 2.28339 0.389361Z" fill="currentColor"/>
    </symbol>

    <symbol viewBox="0 0 21 21" id="close" xmlns="http://www.w3.org/2000/svg">
        <path d="M20.4147 0.585222C19.9128 0.0833278 19.1079 0.0833278 18.606 0.585222L10.4999 8.69128L2.39387 0.585222C1.89198 0.0833278 1.08705 0.0833278 0.585161 0.585222C0.0832667 1.08712 0.0832667 1.89204 0.585161 2.39393L8.69122 10.5L0.585161 18.6061C0.0832667 19.108 0.0832667 19.9129 0.585161 20.4148C0.831373 20.661 1.16281 20.7936 1.48478 20.7936C1.80675 20.7936 2.13819 20.6704 2.3844 20.4148L10.4905 12.3087L18.5965 20.4148C18.8427 20.661 19.1742 20.7936 19.4961 20.7936C19.8276 20.7936 20.1496 20.6704 20.3958 20.4148C20.8977 19.9129 20.8977 19.108 20.3958 18.6061L12.3086 10.5L20.4147 2.39393C20.9166 1.89204 20.9166 1.08712 20.4147 0.585222Z" fill="currentColor"/>
    </symbol>

    <symbol viewBox="0 0 40 40" id="close-modal" xmlns="http://www.w3.org/2000/svg">
        <path fill-rule="evenodd" clip-rule="evenodd" d="M37.3314 39.6657L39.6647 37.3325L22.1655 19.8333L39.6652 2.33374L37.3319 0.000488281L19.8323 17.5001L2.33276 0.000488281L-0.000488281 2.33374L17.499 19.8333L-0.00012207 37.3325L2.33313 39.6657L19.8323 22.1666L37.3314 39.6657Z" fill="currentColor"/>
    </symbol>

    <symbol viewBox="0 0 17 16" id="arrow-right" xmlns="http://www.w3.org/2000/svg">
        <path fill-rule="evenodd" clip-rule="evenodd" d="M10.3431 0.928933L16.7071 7.29289C17.0976 7.68342 17.0976 8.31658 16.7071 8.70711L10.3431 15.0711C9.95262 15.4616 9.31946 15.4616 8.92893 15.0711C8.53841 14.6805 8.53841 14.0474 8.92893 13.6569L13.5858 9L0 9L0 7L13.5858 7L8.92893 2.34315C8.53841 1.95262 8.53841 1.31946 8.92893 0.928933C9.31946 0.538409 9.95262 0.538409 10.3431 0.928933Z" fill="currentColor"/>
    </symbol>

    <symbol viewBox="0 0 17 16" id="arrow-right" xmlns="http://www.w3.org/2000/svg">
        <path fill-rule="evenodd" clip-rule="evenodd" d="M10.3431 0.928933L16.7071 7.29289C17.0976 7.68342 17.0976 8.31658 16.7071 8.70711L10.3431 15.0711C9.95262 15.4616 9.31946 15.4616 8.92893 15.0711C8.53841 14.6805 8.53841 14.0474 8.92893 13.6569L13.5858 9L0 9L0 7L13.5858 7L8.92893 2.34315C8.53841 1.95262 8.53841 1.31946 8.92893 0.928933C9.31946 0.538409 9.95262 0.538409 10.3431 0.928933Z" fill="currentColor"/>
    </symbol>

    <symbol viewBox="0 0 17 16" id="arrow-left" xmlns="http://www.w3.org/2000/svg">
        <path fill-rule="evenodd" clip-rule="evenodd" d="M6.65685 15.071L0.292892 8.70704C-0.0976315 8.31651 -0.0976315 7.68335 0.292892 7.29282L6.65685 0.928863C7.04738 0.538338 7.68054 0.538338 8.07107 0.928863C8.46159 1.31939 8.46159 1.95255 8.07107 2.34308L3.41421 6.99993H17V8.99993H3.41421L8.07107 13.6568C8.46159 14.0473 8.46159 14.6805 8.07107 15.071C7.68054 15.4615 7.04738 15.4615 6.65685 15.071Z" fill="currentColor"/>
    </symbol>

    <symbol viewBox="0 0 16 17" id="arrow-up" xmlns="http://www.w3.org/2000/svg">
        <path fill-rule="evenodd" clip-rule="evenodd" d="M0.928879 6.65685L7.29284 0.292892C7.68336 -0.0976318 8.31653 -0.0976318 8.70705 0.292892L15.071 6.65685C15.4615 7.04738 15.4615 7.68054 15.071 8.07107C14.6805 8.46159 14.0473 8.46159 13.6568 8.07107L8.99995 3.41421L8.99995 17L6.99995 17L6.99995 3.41421L2.34309 8.07107C1.95257 8.46159 1.3194 8.46159 0.928879 8.07107C0.538355 7.68054 0.538355 7.04738 0.928879 6.65685Z" fill="currentColor"/>
    </symbol>

    <symbol viewBox="0 0 16 17" id="arrow-down" xmlns="http://www.w3.org/2000/svg">
        <path fill-rule="evenodd" clip-rule="evenodd" d="M15.0709 10.3431L8.70691 16.7071C8.31639 17.0976 7.68322 17.0976 7.2927 16.7071L0.92874 10.3431C0.538215 9.95262 0.538215 9.31946 0.92874 8.92893C1.31926 8.53841 1.95243 8.53841 2.34295 8.92893L6.99981 13.5858L6.99981 -5.94101e-07L8.99981 -4.52039e-07L8.99981 13.5858L13.6567 8.92893C14.0472 8.53841 14.6804 8.53841 15.0709 8.92893C15.4614 9.31946 15.4614 9.95262 15.0709 10.3431Z" fill="currentColor"/>
    </symbol>

    <symbol viewBox="0 0 53 53" id="phone" xmlns="http://www.w3.org/2000/svg">
        <path fill-rule="evenodd" clip-rule="evenodd" d="M44.9244 7.99865C49.1527 12.227 51.9044 17.5403 52.9 23.3794C53.0454 24.196 52.4861 24.979 51.6695 25.1021C51.6605 25.1032 51.6515 25.1043 51.6427 25.1054C51.5641 25.1154 51.4927 25.1244 51.4122 25.1244C50.6852 25.1244 50.0476 24.6099 49.9245 23.8716C49.0408 18.6589 46.5799 13.9049 42.799 10.124C39.0181 6.35431 34.2641 3.8822 29.0514 2.9985C28.2236 2.85308 27.6755 2.08125 27.8098 1.25348C27.9552 0.436905 28.727 -0.122396 29.5436 0.0230225C35.3827 1.01858 40.696 3.77034 44.9244 7.99865ZM41.8482 32.8317C40.7631 31.7019 39.4544 31.0978 38.0673 31.0978C36.6914 31.0978 35.3715 31.6907 34.2417 32.8205L30.7069 36.3441C30.5146 36.2405 30.3224 36.1419 30.1334 36.0449C30.0364 35.9952 29.9404 35.9459 29.8456 35.8966C29.4429 35.6953 29.0625 35.5051 28.7382 35.3038C25.4271 33.2008 22.4181 30.4602 19.5321 26.9143C18.1338 25.1469 17.1942 23.6591 16.5118 22.149C17.3406 21.391 18.1146 20.6055 18.8668 19.8422L19.107 19.5986C19.2634 19.4422 19.4197 19.2831 19.5761 19.1239L19.5768 19.1232C19.7334 18.9638 19.89 18.8044 20.0466 18.6478C22.3957 16.2987 22.3957 13.2561 20.0466 10.9071L16.9928 7.85329C16.6461 7.50652 16.2881 7.14857 15.9525 6.79062C15.2814 6.09708 14.5767 5.38118 13.8496 4.71002C12.7645 3.63616 11.4669 3.06567 10.1023 3.06567C8.73756 3.06567 7.41761 3.63616 6.29901 4.71002L6.27664 4.73239L2.47339 8.56919C1.04158 10.001 0.225005 11.746 0.0460288 13.7707C-0.222436 17.037 0.739562 20.0796 1.47784 22.0707C3.28997 26.959 5.99699 31.4893 10.0351 36.3441C14.9346 42.1943 20.8296 46.8142 27.5636 50.0693C30.1364 51.2886 33.5705 52.7316 37.4073 52.9777C37.6422 52.9888 37.8883 53 38.112 53C40.696 53 42.8661 52.0716 44.5664 50.2259C44.572 50.2147 44.5803 50.2063 44.5887 50.1979C44.5971 50.1895 44.6055 50.1812 44.6111 50.17C45.1497 49.5175 45.7649 48.9226 46.4125 48.2964L46.4126 48.2963L46.5687 48.1453C47.0497 47.6867 47.5418 47.2057 48.0228 46.7023C49.1303 45.5502 49.7119 44.2078 49.7119 42.8319C49.7119 41.4449 49.1191 40.1137 47.9893 38.9951L41.8482 32.8317ZM45.8528 44.6105C45.4946 44.9963 45.1288 45.3519 44.7431 45.7268C44.6591 45.8085 44.5741 45.8912 44.4881 45.9752C43.761 46.6688 43.0227 47.3958 42.3292 48.2124C41.1994 49.4205 39.8682 49.991 38.1232 49.991C37.9554 49.991 37.7765 49.991 37.6087 49.9798C34.2864 49.7673 31.1991 48.4697 28.8836 47.3623C22.5523 44.2973 16.9928 39.946 12.373 34.4313C8.55859 29.8338 6.00817 25.5831 4.31909 21.0192C3.27879 18.2339 2.89846 16.0638 3.06625 14.0168C3.17811 12.708 3.68148 11.623 4.60992 10.6945L8.42435 6.8801C8.97247 6.36555 9.55414 6.0859 10.1246 6.0859C10.8293 6.0859 11.3998 6.51097 11.7578 6.86892L11.7913 6.90248C12.4737 7.54008 13.1225 8.20005 13.8048 8.90477C13.9795 9.08511 14.1571 9.26545 14.336 9.44722L14.3361 9.44735L14.3362 9.44745C14.5124 9.6264 14.69 9.80673 14.8675 9.98982L17.9213 13.0436C19.107 14.2293 19.107 15.3255 17.9213 16.5113C17.8128 16.6197 17.7056 16.7282 17.5988 16.8362L17.5986 16.8365C17.386 17.0515 17.1751 17.2648 16.9593 17.4733C16.0197 18.4353 15.1248 19.3301 14.1516 20.2026C14.1437 20.2106 14.1358 20.2171 14.1283 20.2232L14.1283 20.2232C14.1148 20.2343 14.1029 20.2441 14.0957 20.2586C13.1337 21.2206 13.3126 22.1602 13.514 22.7978L13.5475 22.8985C14.3418 24.8225 15.4604 26.6346 17.1606 28.7935L17.1718 28.8047C20.2592 32.6079 23.5143 35.5722 27.105 37.843C27.5636 38.1338 28.0334 38.3687 28.4809 38.5924L28.481 38.5925L28.4813 38.5926C28.8838 38.7939 29.264 38.984 29.5883 39.1853C29.6107 39.1965 29.633 39.2105 29.6554 39.2245C29.6778 39.2384 29.7001 39.2524 29.7225 39.2636C30.1028 39.4538 30.4608 39.5433 30.8299 39.5433C31.7584 39.5433 32.34 38.9616 32.5302 38.7714L36.3558 34.9458C36.7362 34.5655 37.3402 34.1069 38.0449 34.1069C38.7384 34.1069 39.3089 34.5431 39.6557 34.9234L39.6781 34.9458L45.8416 41.1093C46.9937 42.2503 46.9937 43.4248 45.8528 44.6105ZM28.6039 12.6073C31.5346 13.0995 34.1969 14.4865 36.3222 16.6119C38.4475 18.7372 39.8234 21.3995 40.3268 24.3302C40.4498 25.0685 41.0874 25.583 41.8145 25.583C41.895 25.583 41.9664 25.574 42.045 25.5641L42.0718 25.5607C42.8996 25.4264 43.4477 24.6434 43.3135 23.8157C42.7094 20.2697 41.0315 17.0369 38.4699 14.4753C35.9083 11.9137 32.6756 10.2358 29.1296 9.63179C28.3018 9.49756 27.53 10.0457 27.3846 10.8623C27.2392 11.6788 27.7761 12.473 28.6039 12.6073Z" fill="currentColor"/>
    </symbol>

    <symbol viewBox="0 0 59 45" id="email" xmlns="http://www.w3.org/2000/svg">
        <path fill-rule="evenodd" clip-rule="evenodd" d="M7.21477 0.0500488H51.7974C55.7772 0.0500488 59.0122 3.29731 59 7.27703V37.7353C59 41.7151 55.765 44.9501 51.7852 44.9501H7.21477C3.23505 44.9501 0 41.7151 0 37.7353V7.26482C0 3.2851 3.23505 0.0500488 7.21477 0.0500488ZM51.7974 41.654C53.9582 41.654 55.7161 39.8961 55.7161 37.7353H55.7039V7.27703C55.7039 5.11626 53.946 3.35835 51.7852 3.35835H7.21477C5.054 3.35835 3.29609 5.11626 3.29609 7.27703V37.7353C3.29609 39.8961 5.054 41.654 7.21477 41.654H51.7974ZM51.6388 9.18152L37.2092 22.1217L51.6998 35.8798C52.359 36.5024 52.3835 37.5523 51.7609 38.2115C51.4312 38.5533 51.004 38.7242 50.5645 38.7242C50.1616 38.7242 49.7466 38.5778 49.4292 38.2726L34.7555 24.3313L30.6415 28.0181C30.3363 28.2988 29.9334 28.4453 29.5428 28.4453C29.1521 28.4453 28.7615 28.311 28.4441 28.0303L24.4399 24.4534L9.68078 38.2604C9.36338 38.5533 8.96053 38.6998 8.55767 38.6998C8.11819 38.6998 7.67872 38.5167 7.34911 38.1749C6.72651 37.5035 6.76313 36.4658 7.42235 35.8432L21.9618 22.2316L7.36131 9.18152C6.67768 8.57113 6.61664 7.53347 7.22703 6.84984C7.83742 6.16621 8.87507 6.10517 9.55871 6.71555L25.3555 20.8521C25.4532 20.9254 25.5386 20.9986 25.6241 21.0841C25.6241 21.0963 25.6363 21.1085 25.6485 21.1207L29.5306 24.5877L49.4292 6.72776C50.1128 6.11737 51.1505 6.17841 51.7609 6.84984C52.3712 7.53347 52.3102 8.57113 51.6388 9.18152Z" fill="currentColor"/>
    </symbol>

    <symbol viewBox="0 0 59 59" id="number" xmlns="http://www.w3.org/2000/svg">
        <path fill-rule="evenodd" clip-rule="evenodd" d="M28 43.4433C28 39.7791 26.4014 36.4882 23.8635 34.2301C23.8375 34.2087 23.8122 34.1864 23.7877 34.1633C21.6208 32.2667 18.7838 31.1168 15.6783 31.1152L15.6719 31.1152L15.6654 31.1152C8.85977 31.1187 3.34375 36.6369 3.34375 43.4433C3.34375 50.252 8.86326 55.7715 15.6719 55.7715C22.4797 55.7715 27.9988 50.2532 28 43.4456V43.4433ZM30.9275 41.9434H49.0898C49.9183 41.9434 50.5898 42.6149 50.5898 43.4434C50.5898 44.2718 49.9183 44.9434 49.0898 44.9434H30.9275C30.4968 49.3777 28.1766 53.2589 24.7822 55.7715H53.6992C54.78 55.7715 55.6562 54.8952 55.6562 53.8145V14.752H45.6328C44.8044 14.752 44.1328 14.0804 44.1328 13.252V3.22852H19.1289C18.0481 3.22852 17.1719 4.10477 17.1719 5.18555V28.1877C20.2661 28.4882 23.091 29.7087 25.3694 31.5723H49.0899C49.9183 31.5723 50.5899 32.2438 50.5899 33.0723C50.5899 33.9007 49.9183 34.5723 49.0899 34.5723H28.1736C29.681 36.6927 30.6624 39.2132 30.9275 41.9434ZM51.212 9.429L53.5348 11.752H47.1328V5.34984L51.212 9.429ZM19.1289 0.228519H45.6207C45.6374 0.22839 45.6541 0.228539 45.6707 0.228962C45.6847 0.229317 45.6987 0.22987 45.7126 0.230618C45.6863 0.229221 45.6598 0.228519 45.6333 0.228519H45.6207L53.2785 7.25291L58.2169 12.1917C58.4982 12.473 58.6562 12.8545 58.6562 13.2523V13.2633V53.8145C58.6562 56.5521 56.4368 58.7715 53.6992 58.7715H15.6719L15.6651 58.7715C7.20277 58.7678 0.34375 51.9066 0.34375 43.4433C0.34375 35.484 6.41037 28.9415 14.1719 28.1877V5.18555C14.1719 2.44792 16.3913 0.228519 19.1289 0.228519ZM22.2383 22.7012C22.2383 23.5296 22.9099 24.2012 23.7383 24.2012H49.0898C49.9183 24.2012 50.5898 23.5296 50.5898 22.7012C50.5898 21.8727 49.9183 21.2012 49.0898 21.2012H23.7383C22.9099 21.2012 22.2383 21.8727 22.2383 22.7012ZM12.1913 49.4591C12.7771 50.0449 13.7268 50.0449 14.3126 49.4591L22.379 41.3927C22.9648 40.8069 22.9648 39.8572 22.379 39.2714C21.7932 38.6856 20.8435 38.6856 20.2577 39.2714L13.252 46.2771L10.8556 43.8807C10.2698 43.295 9.32005 43.295 8.73426 43.8807C8.14847 44.4665 8.14847 45.4163 8.73426 46.0021L12.1913 49.4591Z" fill="currentColor"/>
    </symbol>

    <symbol viewBox="0 0 21 21" id="whatsapp" xmlns="http://www.w3.org/2000/svg">
        <path d="M17.9268 3.0625C15.9512 1.09375 13.3171 0 10.5366 0C4.7561 0 0.0731696 4.66667 0.0731696 10.4271C0.0731696 12.25 0.585366 14.0729 1.46341 15.6042L0 21L5.56098 19.5417C7.09756 20.3437 8.78049 20.7812 10.5366 20.7812C16.3171 20.7812 21 16.1146 21 10.3542C20.9268 7.65625 19.9024 5.03125 17.9268 3.0625ZM15.5854 14.1458C15.3659 14.7292 14.3415 15.3125 13.8293 15.3854C13.3902 15.4583 12.8049 15.4583 12.2195 15.3125C11.8537 15.1667 11.3415 15.0208 10.7561 14.7292C8.12195 13.6354 6.43903 11.0104 6.29268 10.7917C6.14634 10.6458 5.19512 9.40625 5.19512 8.09375C5.19512 6.78125 5.85366 6.19792 6.07317 5.90625C6.29268 5.61458 6.58537 5.61458 6.80488 5.61458C6.95122 5.61458 7.17073 5.61458 7.31707 5.61458C7.46341 5.61458 7.68293 5.54167 7.90244 6.05208C8.12195 6.5625 8.63414 7.875 8.70731 7.94792C8.78049 8.09375 8.78049 8.23958 8.70731 8.38542C8.63414 8.53125 8.56097 8.67708 8.41463 8.82292C8.26829 8.96875 8.12195 9.1875 8.04878 9.26042C7.90244 9.40625 7.7561 9.55208 7.90244 9.77083C8.04878 10.0625 8.56097 10.8646 9.36585 11.5937C10.3902 12.4687 11.1951 12.7604 11.4878 12.9063C11.7805 13.0521 11.9268 12.9792 12.0732 12.8333C12.2195 12.6875 12.7317 12.1042 12.878 11.8125C13.0244 11.5208 13.2439 11.5938 13.4634 11.6667C13.6829 11.7396 15 12.3958 15.2195 12.5417C15.5122 12.6875 15.6585 12.7604 15.7317 12.8333C15.8049 13.0521 15.8049 13.5625 15.5854 14.1458Z" fill="currentColor"/>
    </symbol>

    <symbol viewBox="0 0 15 15" id="linkedin" xmlns="http://www.w3.org/2000/svg">
        <path d="M15 8.7444V14.2601H11.7713V9.08072C11.7713 7.80269 11.3004 6.92826 10.157 6.92826C9.28251 6.92826 8.74439 7.53363 8.5426 8.07175C8.47534 8.27355 8.40807 8.5426 8.40807 8.87892V14.2601H5.17937C5.17937 14.2601 5.24664 5.5157 5.17937 4.64126H8.40807V5.98655C8.81166 5.3139 9.61883 4.3722 11.3004 4.3722C13.3856 4.3722 15 5.78475 15 8.7444ZM1.81614 0C0.739908 0 0 0.739911 0 1.68161C0 2.62332 0.672645 3.36323 1.74888 3.36323C2.89238 3.36323 3.56502 2.62332 3.56502 1.68161C3.63229 0.672646 2.95964 0 1.81614 0ZM0.201793 14.2601H3.43049V4.64126H0.201793V14.2601Z" fill="currentColor"/>
    </symbol>




    <symbol viewBox="" id="id" xmlns="http://www.w3.org/2000/svg">
        
    </symbol>
</svg>