<svg width="280" height="53" viewBox="0 0 280 53" fill="none" xmlns="http://www.w3.org/2000/svg">
<path d="M18.1119 23.4801C16.3072 25.16 13.9995 26 11.1887 26C7.71066 26 4.97639 24.8652 2.98583 22.5956C0.995277 20.3149 0 17.1887 0 13.2169C0 8.92255 1.13199 5.61275 3.39597 3.28755C5.36465 1.26273 7.86925 0.250321 10.9098 0.250321C14.9784 0.250321 17.9533 1.60762 19.8345 4.32221C20.8735 5.84638 21.4313 7.37612 21.5078 8.91142H16.4549C16.1268 7.73214 15.7057 6.84211 15.1916 6.24133C14.2729 5.1733 12.9113 4.63928 11.1066 4.63928C9.2692 4.63928 7.82003 5.39581 6.75914 6.90886C5.69824 8.41078 5.16779 10.5413 5.16779 13.3004C5.16779 16.0595 5.72558 18.1288 6.84116 19.5083C7.96769 20.8768 9.39498 21.561 11.123 21.561C12.8949 21.561 14.2456 20.9713 15.1752 19.792C15.6893 19.1579 16.1158 18.2067 16.4549 16.9384H21.4586C21.0211 19.6196 19.9055 21.8002 18.1119 23.4801Z" fill="#00419E"/>
<path d="M34.1074 21.7612C35.2995 21.7612 36.2675 21.6277 37.0112 21.3607C38.4221 20.849 39.1275 19.8977 39.1275 18.5071C39.1275 17.6949 38.7775 17.0663 38.0776 16.6213C37.3776 16.1874 36.2784 15.8036 34.78 15.4698L32.2207 14.8858C29.7052 14.3072 27.9662 13.6786 27.0037 13C25.3741 11.8652 24.5593 10.0907 24.5593 7.67651C24.5593 5.47368 25.3468 3.64356 26.9217 2.18614C28.4966 0.728712 30.8098 0 33.8613 0C36.4096 0 38.5807 0.689773 40.3743 2.06932C42.179 3.43774 43.125 5.42918 43.2125 8.04365H38.3565C38.269 6.56397 37.6346 5.51262 36.4534 4.8896C35.6659 4.47796 34.687 4.27214 33.5168 4.27214C32.2153 4.27214 31.1762 4.53915 30.3997 5.07317C29.6232 5.60719 29.2349 6.35259 29.2349 7.30937C29.2349 8.18828 29.6177 8.84467 30.3833 9.27856C30.8755 9.56782 31.9254 9.90715 33.5332 10.2965L37.7002 11.3145C39.5267 11.7595 40.9048 12.3547 41.8345 13.1001C43.2782 14.2572 44 15.9315 44 18.1232C44 20.3706 43.1524 22.2396 41.4571 23.7304C39.7728 25.2101 37.3885 25.9499 34.3043 25.9499C31.1544 25.9499 28.6771 25.2212 26.8725 23.7638C25.0679 22.2952 24.1655 20.2816 24.1655 17.7227H28.9888C29.1419 18.8464 29.4427 19.6863 29.8911 20.2426C30.7114 21.255 32.1168 21.7612 34.1074 21.7612Z" fill="#00419E"/>
<path d="M214.002 51.9845C212.918 52.6615 211.584 53 210.002 53C207.397 53 205.263 52.0838 203.6 50.2515C201.867 48.4101 201 45.8917 201 42.6963C201 39.4649 201.876 36.8743 203.627 34.9246C205.379 32.9749 207.694 32 210.575 32C213.073 32 215.078 32.6454 216.589 33.9362C218.11 35.2179 218.981 36.8201 219.203 38.7427H215.162C214.851 37.3798 214.091 36.4275 212.882 35.8859C212.206 35.588 211.455 35.4391 210.628 35.4391C209.046 35.4391 207.743 36.0484 206.721 37.2669C205.707 38.4765 205.201 40.2998 205.201 42.7369C205.201 45.1921 205.752 46.9297 206.854 47.9497C207.957 48.9697 209.21 49.4797 210.615 49.4797C211.993 49.4797 213.122 49.078 214.002 48.2747C214.882 47.4623 215.425 46.4017 215.629 45.0928H211.082V41.7621H219.27V52.472H216.549L216.136 49.9807C215.345 50.9284 214.633 51.5964 214.002 51.9845Z" fill="#00419E"/>
<path d="M231.058 41.7756C230.738 41.0625 230.112 40.706 229.178 40.706C228.093 40.706 227.364 41.0625 226.991 41.7756C226.787 42.1818 226.684 42.7866 226.684 43.5899V52.472H222.83V37.7408H226.524V39.8936C226.995 39.1264 227.44 38.5803 227.858 38.2553C228.596 37.6776 229.551 37.3888 230.725 37.3888C231.836 37.3888 232.734 37.637 233.419 38.1335C233.97 38.5938 234.388 39.185 234.672 39.9072C235.17 39.0406 235.788 38.4043 236.526 37.9981C237.308 37.5919 238.18 37.3888 239.14 37.3888C239.78 37.3888 240.411 37.5152 241.033 37.7679C241.656 38.0206 242.22 38.4629 242.727 39.0948C243.136 39.6093 243.412 40.2411 243.554 40.9903C243.643 41.4868 243.687 42.2134 243.687 43.1702L243.661 52.472H239.767V43.0754C239.767 42.5158 239.678 42.0554 239.5 41.6944C239.162 41.0084 238.54 40.6654 237.633 40.6654C236.584 40.6654 235.859 41.1077 235.459 41.9923C235.255 42.4616 235.152 43.0258 235.152 43.6847V52.472H231.325V43.6847C231.325 42.8092 231.236 42.1728 231.058 41.7756Z" fill="#00419E"/>
<path d="M255.089 52.8646C253.889 52.8646 252.924 52.6209 252.195 52.1335C251.76 51.8446 251.288 51.3391 250.782 50.617V52.472H247.061V32.5416H250.848V39.6364C251.328 38.9504 251.857 38.4268 252.435 38.0658C253.12 37.6144 253.991 37.3888 255.049 37.3888C256.961 37.3888 258.454 38.0883 259.53 39.4874C260.615 40.8865 261.157 42.6918 261.157 44.9033C261.157 47.196 260.623 49.0961 259.557 50.6035C258.49 52.1109 257.001 52.8646 255.089 52.8646ZM257.169 45.3095C257.169 44.2624 257.036 43.3959 256.769 42.7099C256.263 41.4101 255.329 40.7602 253.969 40.7602C252.591 40.7602 251.644 41.3965 251.128 42.6692C250.862 43.3462 250.728 44.2218 250.728 45.2959C250.728 46.5596 251.004 47.6067 251.555 48.4371C252.106 49.2676 252.947 49.6828 254.076 49.6828C255.054 49.6828 255.814 49.2811 256.356 48.4778C256.898 47.6744 257.169 46.6183 257.169 45.3095Z" fill="#00419E"/>
<path d="M275.919 52.472V43.5629H268.238V52.472H264.171V32.5145H268.238V40.1238H275.919V32.5145H280V52.472H275.919Z" fill="#00419E"/>
<path d="M74.9427 23.5535C73.1549 25.1845 70.8688 26 68.0842 26C64.6387 26 61.9299 24.8982 59.9579 22.6947C57.986 20.4804 57 17.4452 57 13.5891C57 9.41974 58.1214 6.20631 60.3643 3.9488C62.3146 1.98293 64.7958 1 67.8079 1C71.8385 1 74.7856 2.31778 76.6492 4.95334C77.6785 6.43314 78.2311 7.91834 78.307 9.40894H73.3012C72.9762 8.26399 72.559 7.39987 72.0498 6.81659C71.1396 5.77965 69.7907 5.26118 68.0029 5.26118C66.1826 5.26118 64.747 5.99568 63.696 7.46468C62.645 8.92288 62.1195 10.9914 62.1195 13.6701C62.1195 16.3489 62.6721 18.358 63.7773 19.6973C64.8933 21.0259 66.3072 21.6902 68.0192 21.6902C69.7744 21.6902 71.1126 21.1177 72.0335 19.9728C72.5428 19.3571 72.9653 18.4336 73.3012 17.2022H78.2582C77.8248 19.8054 76.7197 21.9224 74.9427 23.5535Z" fill="black"/>
<path d="M96.4935 9.91121C97.9887 11.7799 98.7363 13.9888 98.7363 16.5379C98.7363 19.1303 97.9887 21.35 96.4935 23.197C94.9983 25.0333 92.7283 25.9514 89.6837 25.9514C86.6391 25.9514 84.3691 25.0333 82.8739 23.197C81.3787 21.35 80.6311 19.1303 80.6311 16.5379C80.6311 13.9888 81.3787 11.7799 82.8739 9.91121C84.3691 8.04256 86.6391 7.10823 89.6837 7.10823C92.7283 7.10823 94.9983 8.04256 96.4935 9.91121ZM89.6674 11.013C88.3131 11.013 87.2675 11.4936 86.5307 12.455C85.8048 13.4055 85.4418 14.7665 85.4418 16.5379C85.4418 18.3094 85.8048 19.6757 86.5307 20.6371C87.2675 21.5984 88.3131 22.0791 89.6674 22.0791C91.0218 22.0791 92.062 21.5984 92.7879 20.6371C93.5139 19.6757 93.8768 18.3094 93.8768 16.5379C93.8768 14.7665 93.5139 13.4055 92.7879 12.455C92.062 11.4936 91.0218 11.013 89.6674 11.013Z" fill="black"/>
<path d="M110.406 11.094C108.835 11.094 107.756 11.7583 107.171 13.0868C106.868 13.7889 106.716 14.6855 106.716 15.7764V25.3357H102.101V7.70771H106.57V10.2839C107.166 9.37654 107.729 8.72305 108.26 8.3234C109.214 7.6105 110.422 7.25405 111.885 7.25405C113.716 7.25405 115.211 7.73472 116.37 8.69605C117.54 9.64658 118.126 11.229 118.126 13.4433V25.3357H113.38V14.5936C113.38 13.6647 113.255 12.9518 113.006 12.455C112.551 11.5476 111.684 11.094 110.406 11.094Z" fill="black"/>
<path d="M134.622 8.48542C136.009 9.37114 136.805 10.8941 137.011 13.0544H132.379C132.314 12.4604 132.146 11.9905 131.875 11.6448C131.366 11.0184 130.499 10.7051 129.275 10.7051C128.267 10.7051 127.547 10.8617 127.113 11.175C126.691 11.4882 126.479 11.8555 126.479 12.2767C126.479 12.806 126.707 13.1895 127.162 13.4271C127.617 13.6755 129.226 14.1022 131.989 14.7071C133.831 15.1391 135.212 15.7926 136.133 16.6675C137.043 17.5533 137.498 18.6604 137.498 19.989C137.498 21.7388 136.843 23.17 135.532 24.2826C134.232 25.3843 132.216 25.9352 129.486 25.9352C126.701 25.9352 124.643 25.3519 123.31 24.1854C121.988 23.008 121.327 21.512 121.327 19.6973H126.024C126.122 20.5183 126.333 21.1015 126.658 21.4472C127.232 22.0629 128.294 22.3707 129.844 22.3707C130.754 22.3707 131.474 22.2357 132.005 21.9657C132.547 21.6956 132.818 21.2906 132.818 20.7505C132.818 20.232 132.601 19.8378 132.168 19.5677C131.734 19.2977 130.125 18.8332 127.341 18.1743C125.336 17.6775 123.922 17.0564 123.099 16.3111C122.275 15.5766 121.864 14.518 121.864 13.1355C121.864 11.5044 122.503 10.1056 123.781 8.93908C125.071 7.76172 126.88 7.17304 129.21 7.17304C131.42 7.17304 133.224 7.6105 134.622 8.48542Z" fill="black"/>
<path d="M149.054 22.0467V25.4977L146.86 25.5787C144.671 25.6544 143.176 25.2763 142.374 24.4446C141.854 23.9153 141.594 23.0998 141.594 21.9981V11.1264H139.124V7.83733H141.594V2.91186H146.177V7.83733H149.054V11.1264H146.177V20.4588C146.177 21.1825 146.269 21.6362 146.454 21.8198C146.638 21.9927 147.201 22.0791 148.144 22.0791C148.285 22.0791 148.431 22.0791 148.583 22.0791C148.745 22.0683 148.902 22.0575 149.054 22.0467Z" fill="black"/>
<path d="M160.934 11.9365C159.071 11.9365 157.819 12.5414 157.18 13.7511C156.823 14.4316 156.644 15.4794 156.644 16.8944V25.3357H151.979V7.67531H156.4V10.7537C157.115 9.57637 157.738 8.77166 158.269 8.3396C159.136 7.6159 160.263 7.25405 161.65 7.25405C161.736 7.25405 161.807 7.25945 161.861 7.27025C161.926 7.27025 162.061 7.27565 162.267 7.28645V12.0175C161.975 11.9851 161.715 11.9635 161.487 11.9527C161.26 11.9419 161.075 11.9365 160.934 11.9365Z" fill="black"/>
<path d="M176.358 22.8406C176.315 22.8946 176.206 23.0566 176.033 23.3266C175.86 23.5967 175.654 23.8343 175.415 24.0395C174.689 24.6876 173.985 25.1305 173.303 25.3681C172.631 25.6057 171.84 25.7246 170.93 25.7246C168.308 25.7246 166.542 24.7848 165.631 22.9054C165.122 21.8684 164.868 20.34 164.868 18.3202V7.67531H169.613V18.3202C169.613 19.3247 169.732 20.0808 169.971 20.5885C170.393 21.485 171.222 21.9332 172.457 21.9332C174.039 21.9332 175.123 21.296 175.708 20.0214C176.011 19.3301 176.163 18.4174 176.163 17.2832V7.67531H180.86V25.3357H176.358V22.8406Z" fill="black"/>
<path d="M200.672 14.0104H195.926C195.839 13.3515 195.617 12.7574 195.26 12.2281C194.74 11.5152 193.932 11.1588 192.838 11.1588C191.278 11.1588 190.211 11.9311 189.636 13.4757C189.333 14.2966 189.181 15.3876 189.181 16.7485C189.181 18.0447 189.333 19.0871 189.636 19.8756C190.189 21.3446 191.229 22.0791 192.757 22.0791C193.84 22.0791 194.61 21.7874 195.065 21.2041C195.52 20.6209 195.796 19.8648 195.894 18.9358H200.623C200.515 20.34 200.005 21.6686 199.095 22.9216C197.643 24.9415 195.493 25.9514 192.643 25.9514C189.793 25.9514 187.697 25.1089 186.353 23.4238C185.01 21.7388 184.338 19.5515 184.338 16.862C184.338 13.8267 185.08 11.4666 186.565 9.78159C188.049 8.09656 190.097 7.25405 192.708 7.25405C194.929 7.25405 196.744 7.75092 198.153 8.74465C199.572 9.73839 200.412 11.4936 200.672 14.0104Z" fill="black"/>
<path d="M211.983 22.0467V25.4977L209.789 25.5787C207.601 25.6544 206.105 25.2763 205.304 24.4446C204.784 23.9153 204.524 23.0998 204.524 21.9981V11.1264H202.053V7.83733H204.524V2.91186H209.107V7.83733H211.983V11.1264H209.107V20.4588C209.107 21.1825 209.199 21.6362 209.383 21.8198C209.567 21.9927 210.131 22.0791 211.073 22.0791C211.214 22.0791 211.36 22.0791 211.512 22.0791C211.675 22.0683 211.832 22.0575 211.983 22.0467Z" fill="black"/>
<path d="M219.72 7.67531V25.3357H215.023V7.67531H219.72ZM219.72 1.30784V5.56902H215.023V1.30784H219.72Z" fill="black"/>
<path d="M238.995 9.91121C240.49 11.7799 241.238 13.9888 241.238 16.5379C241.238 19.1303 240.49 21.35 238.995 23.197C237.5 25.0333 235.23 25.9514 232.185 25.9514C229.141 25.9514 226.871 25.0333 225.375 23.197C223.88 21.35 223.133 19.1303 223.133 16.5379C223.133 13.9888 223.88 11.7799 225.375 9.91121C226.871 8.04256 229.141 7.10823 232.185 7.10823C235.23 7.10823 237.5 8.04256 238.995 9.91121ZM232.169 11.013C230.815 11.013 229.769 11.4936 229.032 12.455C228.306 13.4055 227.943 14.7665 227.943 16.5379C227.943 18.3094 228.306 19.6757 229.032 20.6371C229.769 21.5984 230.815 22.0791 232.169 22.0791C233.523 22.0791 234.564 21.5984 235.289 20.6371C236.015 19.6757 236.378 18.3094 236.378 16.5379C236.378 14.7665 236.015 13.4055 235.289 12.455C234.564 11.4936 233.523 11.013 232.169 11.013Z" fill="black"/>
<path d="M252.907 11.094C251.336 11.094 250.258 11.7583 249.673 13.0868C249.37 13.7889 249.218 14.6855 249.218 15.7764V25.3357H244.602V7.70771H249.072V10.2839C249.667 9.37654 250.231 8.72305 250.762 8.3234C251.715 7.6105 252.923 7.25405 254.386 7.25405C256.217 7.25405 257.712 7.73472 258.872 8.69605C260.042 9.64658 260.627 11.229 260.627 13.4433V25.3357H255.881V14.5936C255.881 13.6647 255.757 12.9518 255.508 12.455C255.052 11.5476 254.186 11.094 252.907 11.094Z" fill="black"/>
<path d="M277.123 8.48542C278.51 9.37114 279.307 10.8941 279.512 13.0544H274.88C274.815 12.4604 274.648 11.9905 274.377 11.6448C273.867 11.0184 273.001 10.7051 271.776 10.7051C270.769 10.7051 270.048 10.8617 269.615 11.175C269.192 11.4882 268.981 11.8555 268.981 12.2767C268.981 12.806 269.208 13.1895 269.663 13.4271C270.119 13.6755 271.728 14.1022 274.49 14.7071C276.332 15.1391 277.714 15.7926 278.635 16.6675C279.545 17.5533 280 18.6604 280 19.989C280 21.7388 279.344 23.17 278.033 24.2826C276.733 25.3843 274.718 25.9352 271.988 25.9352C269.203 25.9352 267.144 25.3519 265.812 24.1854C264.49 23.008 263.829 21.512 263.829 19.6973H268.526C268.623 20.5183 268.835 21.1015 269.16 21.4472C269.734 22.0629 270.796 22.3707 272.345 22.3707C273.255 22.3707 273.976 22.2357 274.507 21.9657C275.048 21.6956 275.319 21.2906 275.319 20.7505C275.319 20.232 275.103 19.8378 274.669 19.5677C274.236 19.2977 272.627 18.8332 269.842 18.1743C267.838 17.6775 266.424 17.0564 265.6 16.3111C264.777 15.5766 264.365 14.518 264.365 13.1355C264.365 11.5044 265.004 10.1056 266.283 8.93908C267.572 7.76172 269.382 7.17304 271.711 7.17304C273.922 7.17304 275.726 7.6105 277.123 8.48542Z" fill="black"/>
</svg>
